<?xml version="1.0" encoding="UTF-8" standalone="no"?>
<!-- Created with Inkscape (http://www.inkscape.org/) -->

<svg
   version="1.1"
   id="svg5846"
   width="1600"
   height="1600"
   viewBox="0 0 1600 1600"
   sodipodi:docname="symbol-mother-kidn-pdv.svg"
   inkscape:version="1.2 (dc2aedaf03, 2022-05-15)"
   xmlns:inkscape="http://www.inkscape.org/namespaces/inkscape"
   xmlns:sodipodi="http://sodipodi.sourceforge.net/DTD/sodipodi-0.dtd"
   xmlns="http://www.w3.org/2000/svg"
   xmlns:svg="http://www.w3.org/2000/svg">
  <defs
     id="defs5850">
    <clipPath
       clipPathUnits="userSpaceOnUse"
       id="clipPath5862">
      <path
         d="M 0,1200 H 1200 V 0 H 0 Z"
         id="path5860" />
    </clipPath>
  </defs>
  <sodipodi:namedview
     id="namedview5848"
     pagecolor="#ffffff"
     bordercolor="#000000"
     borderopacity="0.25"
     inkscape:showpageshadow="2"
     inkscape:pageopacity="0.0"
     inkscape:pagecheckerboard="0"
     inkscape:deskcolor="#d1d1d1"
     showgrid="false"
     inkscape:zoom="0.523125"
     inkscape:cx="800"
     inkscape:cy="800.95579"
     inkscape:window-width="1920"
     inkscape:window-height="1017"
     inkscape:window-x="-8"
     inkscape:window-y="-8"
     inkscape:window-maximized="1"
     inkscape:current-layer="g5854">
    <inkscape:page
       x="0"
       y="0"
       id="page5852"
       width="1600"
       height="1600" />
  </sodipodi:namedview>
  <g
     id="g5854"
     inkscape:groupmode="layer"
     inkscape:label="Page 1"
     transform="matrix(1.3333333,0,0,-1.3333333,0,1600)">
    <g
       id="g5856">
      <g
         id="g5858"
         clip-path="url(#clipPath5862)">
        <g
           id="g5864"
           transform="translate(812.5869,608.3433)">
          <path
             d="m 0,0 c 21.114,12.975 36.085,35.642 37.884,61.434 0.689,9.848 -0.609,19.236 -3.543,27.807 L -18.671,5.248 Z"
             style="fill:#ffdd00;fill-opacity:1;fill-rule:nonzero;stroke:none"
             id="path5866" />
        </g>
        <g
           id="g5868"
           transform="translate(873.1279,374.2793)">
          <path
             d="m 0,0 c -0.003,0.022 -0.006,0.043 -0.009,0.064 -1.792,12.147 -3.47,24.315 -5.329,36.428 -2.284,14.856 -4.098,29.756 -6.281,44.623 -0.123,0.817 -0.885,2.061 0.381,2.52 1.096,0.39 1.59,-0.873 2.138,-1.557 C 4.076,65.801 17.265,49.535 30.351,33.166 39.707,21.467 49.017,9.729 58.306,-2.025 L 90.995,-3.16 c 1.456,3.474 2.522,7.123 3.134,10.949 0.701,4.377 1.033,8.758 0.84,13.088 L -40.681,190.99 c -4.233,0.274 -8.35,-0.17 -11.946,-1.43 -13.794,-4.831 -27.691,-8.831 -42.033,-9.947 L -139.879,4.859 Z"
             style="fill:#fae01e;fill-opacity:1;fill-rule:nonzero;stroke:none"
             id="path5870" />
        </g>
        <g
           id="g5872"
           transform="translate(790.1279,598.9551)">
          <path
             d="M 0,0 C 4.195,1.02 8.276,2.389 12.209,4.076 L 3.788,14.636 Z"
             style="fill:#fae01e;fill-opacity:1;fill-rule:nonzero;stroke:none"
             id="path5874" />
        </g>
        <g
           id="g5876"
           transform="translate(963.417,413.4141)">
          <path
             d="m 0,0 c -5.44,10.59 -13.243,19.568 -20.353,29.006 -14.654,19.49 -29.431,38.869 -44.219,58.248 -13.166,17.24 -26.286,34.502 -39.653,51.586 -5.993,7.654 -16.701,12.367 -26.745,13.015 L 4.68,-18.258 C 4.401,-12.012 3.021,-5.871 0,0"
             style="fill:#ffee20;fill-opacity:1;fill-rule:nonzero;stroke:none"
             id="path5878" />
        </g>
        <g
           id="g5880"
           transform="translate(802.3369,603.0308)">
          <path
             d="M 0,0 C 3.546,1.523 6.973,3.299 10.25,5.312 L -8.421,10.56 Z"
             style="fill:#ffee20;fill-opacity:1;fill-rule:nonzero;stroke:none"
             id="path5882" />
        </g>
        <g
           id="g5884"
           transform="translate(944.1396,356.1621)">
          <path
             d="m 0,0 c 3.973,-5.049 5.888,-5.217 10.209,-0.336 4.123,4.647 7.45,9.746 9.774,15.293 l -32.689,1.135 C -8.469,10.73 -4.227,5.373 0,0"
             style="fill:#dddf2f;fill-opacity:1;fill-rule:nonzero;stroke:none"
             id="path5886" />
        </g>
        <g
           id="g5888"
           transform="translate(854.1631,299.3359)">
          <path
             d="m 0,0 c 7.539,1.326 15.071,2.689 22.615,3.986 6.046,1.041 6.606,1.971 5.587,7.893 -1.32,7.713 -2.406,15.473 -3.526,23.23 -1.934,13.278 -3.768,26.567 -5.711,39.834 l -139.879,4.86 z"
             style="fill:#dddf2f;fill-opacity:1;fill-rule:nonzero;stroke:none"
             id="path5890" />
        </g>
        <g
           id="g5892"
           transform="translate(846.9277,697.5845)">
          <path
             d="m 0,0 c -9.079,26.506 -33.863,45.163 -64.31,45.163 -23.815,0 -45.758,-11.408 -60.311,-29.057 l 71.609,-100.099 z"
             style="fill:#ffba00;fill-opacity:1;fill-rule:nonzero;stroke:none"
             id="path5894" />
        </g>
        <g
           id="g5896"
           transform="translate(809.4863,133.3379)">
          <path
             d="M 0,0 C 3.728,-14.486 14.979,-19.322 27.528,-17.195 39.451,-15.182 49.067,-4.49 48.978,9.08 48.923,17.834 48.28,26.525 47.434,35.193 L -0.718,3.279 C -0.509,2.18 -0.28,1.084 0,0"
             style="fill:#c1b92f;fill-opacity:1;fill-rule:nonzero;stroke:none"
             id="path5898" />
        </g>
        <g
           id="g5900"
           transform="translate(800.4746,199.2305)">
          <path
             d="m 0,0 c 2.115,-15.291 4.443,-30.572 6.303,-45.898 0.671,-5.569 0.95,-11.221 1.991,-16.715 l 48.151,31.914 c -0.882,9.021 -1.987,18.017 -2.888,27.027 -1.389,13.836 -2.236,27.729 -4.128,41.535 L -5.483,39.932 C -3.656,26.625 -1.84,13.313 0,0"
             style="fill:#ccba1c;fill-opacity:1;fill-rule:nonzero;stroke:none"
             id="path5902" />
        </g>
        <g
           id="g5904"
           transform="translate(691.9336,224.9512)">
          <path
             d="m 0,0 37.737,-113.676 c 2.84,9.18 3.02,19.041 4.563,28.545 2.027,12.426 3.785,24.897 5.597,37.369 2.015,13.836 4.031,27.684 5.922,41.545 1.004,7.375 1.446,14.852 2.658,22.182 L 1.919,18.018 C 1.276,12.012 0.638,6.006 0,0"
             style="fill:#ccba1c;fill-opacity:1;fill-rule:nonzero;stroke:none"
             id="path5906" />
        </g>
        <g
           id="g5908"
           transform="translate(697.5771,276.8809)">
          <path
             d="M 0,0 C -0.44,-3.766 -0.874,-7.529 -1.283,-11.297 -2.11,-18.832 -2.92,-26.371 -3.725,-33.912 l 54.558,-2.053 c 0.127,0.768 0.254,1.537 0.399,2.301 2.116,11.172 3.75,22.379 4.97,33.664 0.36,3.268 1.623,5.338 5.307,5.898 7.478,1.131 14.889,2.721 22.345,4.02 4.211,0.727 7.277,0.525 7.792,-5.318 0.907,-10.366 2.788,-20.655 4.209,-30.975 0.523,-3.781 1.039,-7.562 1.559,-11.344 l 54.912,-2.068 c -0.151,1.109 -0.296,2.217 -0.462,3.324 -1.759,11.744 -2.072,23.699 -3.18,35.555 -0.47,4.982 -1.466,9.92 -1.97,14.912 -0.302,2.967 -1.366,6.504 3.391,7.322 2.163,0.371 4.322,0.75 6.481,1.129 L 35.672,102.258 Z"
             style="fill:#ddc91b;fill-opacity:1;fill-rule:nonzero;stroke:none"
             id="path5910" />
        </g>
        <g
           id="g5912"
           transform="translate(511.8452,1095.9927)">
          <path
             d="m 0,0 c 1.393,19.966 -4.422,38.275 -15.228,52.547 l 1.193,-93.96 C -6.103,-29.241 -1.057,-15.095 0,0"
             style="fill:#ff4e00;fill-opacity:1;fill-rule:nonzero;stroke:none"
             id="path5914" />
        </g>
        <g
           id="g5916"
           transform="translate(790.1279,598.9551)">
          <path
             d="m 0,0 3.788,14.636 -67.283,0.369 c 11.946,-10.693 27.882,-17.14 45.775,-17.14 6.058,0 11.994,0.744 17.72,2.135"
             style="fill:#ffb900;fill-opacity:1;fill-rule:nonzero;stroke:none"
             id="path5918" />
        </g>
        <g
           id="g5920"
           transform="translate(581.7344,614.5991)">
          <path
             d="m 0,0 c 7.804,-7.736 16.066,-15.013 23.892,-22.726 17.62,-17.408 35.096,-34.973 52.649,-52.449 19.255,-19.155 38.533,-38.285 57.8,-57.43 1.534,-1.521 2.217,-3.156 2.149,-5.541 -0.391,-14.912 -2.844,-29.623 -4.198,-44.434 -0.705,-7.648 -1.533,-15.285 -2.385,-22.92 l 21.608,-29.96 45.218,174.753 c -7.387,-0.574 -14.891,-0.382 -22.56,0.858 -17.353,2.81 -33.53,8.588 -47.356,19.279 -13.489,10.422 -26.005,22.098 -38.89,33.282 -2.685,2.33 -5.363,4.669 -8.041,7.006 L -0.149,0.156 C -0.1,0.105 -0.051,0.051 0,0"
             style="fill:#ffb900;fill-opacity:1;fill-rule:nonzero;stroke:none"
             id="path5922" />
        </g>
        <g
           id="g5924"
           transform="translate(722.3066,713.6909)">
          <path
             d="m 0,0 c -10.075,-12.219 -16.608,-27.426 -17.763,-43.913 -1.562,-22.397 7.137,-42.434 22.089,-55.818 l 67.283,-0.369 z"
             style="fill:#ffab00;fill-opacity:1;fill-rule:nonzero;stroke:none"
             id="path5926" />
        </g>
        <g
           id="g5928"
           transform="translate(581.585,614.7554)">
          <path
             d="M 0,0 80.035,-0.438 C 67.71,10.314 55.422,21.115 43.017,31.783 c -5.957,5.127 -5.923,5.15 -1.054,11.049 13.927,16.86 17.913,36.059 13.099,57.307 -0.318,1.398 -0.7,2.767 -1.13,4.115 L -8.765,13.887 C -6.668,8.556 -3.72,3.738 0,0"
             style="fill:#ffab00;fill-opacity:1;fill-rule:nonzero;stroke:none"
             id="path5930" />
        </g>
        <g
           id="g5932"
           transform="translate(711.6416,409.0996)">
          <path
             d="m 0,0 c -0.65,-5.83 -1.312,-11.662 -1.947,-17.494 -0.409,-3.733 -0.861,-7.463 -1.315,-11.192 l 24.869,-1.275 z"
             style="fill:#ff9900;fill-opacity:1;fill-rule:nonzero;stroke:none"
             id="path5934" />
        </g>
        <g
           id="g5936"
           transform="translate(500.8301,423.041)">
          <path
             d="m 0,0 c 27.214,0.84 54.475,0.18 81.723,0.18 0,0.537 0,1.074 0.011,1.601 7.881,0 15.774,0 23.654,0.01 3.841,0 6.023,1.332 5.654,5.789 -0.917,10.959 -3.336,21.662 -5.016,32.498 -3.033,19.613 -9.291,38.299 -15.482,56.926 -5.988,18.035 -14.016,35.355 -22.882,52.26 -4.104,7.822 -8.466,15.486 -13.075,22.984 L -14.539,-0.322 C -9.692,-0.25 -4.846,-0.148 0,0"
             style="fill:#ff9900;fill-opacity:1;fill-rule:nonzero;stroke:none"
             id="path5938" />
        </g>
        <g
           id="g5940"
           transform="translate(474.9121,392.3711)">
          <path
             d="M 0,0 C -0.032,0.479 -0.101,0.947 -0.216,1.4 L -0.762,0.039 Z"
             style="fill:#ff9900;fill-opacity:1;fill-rule:nonzero;stroke:none"
             id="path5942" />
        </g>
        <g
           id="g5944"
           transform="translate(688.3223,191.2051)">
          <path
             d="m 0,0 c -2.597,-23.812 -5.295,-47.623 -7.937,-71.436 -0.973,-8.699 0.236,-16.937 7.289,-22.837 13.388,-11.184 34.827,-5.352 41.185,11.921 0.296,0.801 0.561,1.61 0.812,2.422 L 3.611,33.746 C 2.418,22.496 1.225,11.246 0,0"
             style="fill:#c68600;fill-opacity:1;fill-rule:nonzero;stroke:none"
             id="path5946" />
        </g>
        <g
           id="g5948"
           transform="translate(708.3799,380.4141)">
          <path
             d="m 0,0 c -1.091,-8.967 -2.191,-17.934 -2.705,-26.937 -0.66,-11.475 -2.351,-22.817 -3.392,-34.235 -1.281,-14.15 -3.056,-28.25 -4.706,-42.361 L 24.869,-1.275 Z"
             style="fill:#eaa400;fill-opacity:1;fill-rule:nonzero;stroke:none"
             id="path5950" />
        </g>
        <g
           id="g5952"
           transform="translate(474.9243,391.8652)">
          <path
             d="M 0,0 C 0,0.17 -0.001,0.34 -0.012,0.506 L -0.774,0.545 Z"
             style="fill:#eaa400;fill-opacity:1;fill-rule:nonzero;stroke:none"
             id="path5954" />
        </g>
        <g
           id="g5956"
           transform="translate(561.2588,728.6753)">
          <path
             d="m 0,0 c 6.695,-13.815 13.211,-27.708 19.883,-41.533 1.12,-2.34 1.031,-4.311 -0.548,-6.348 -3.751,-4.824 -6.192,-10.321 -8.52,-15.965 -4.344,-10.589 -3.811,-24.597 0.747,-36.187 L 74.258,-9.666 C 71.326,-0.497 66.065,7.612 62.121,16.3 c -3.99,8.804 -8.319,17.452 -12.62,26.111 l -66.81,-6.935 C -11.531,23.655 -5.732,11.846 0,0"
             style="fill:#ff8800;fill-opacity:1;fill-rule:nonzero;stroke:none"
             id="path5958" />
        </g>
        <g
           id="g5960"
           transform="translate(497.0679,861.7505)">
          <path
             d="m 0,0 c 3.784,-7.736 7.668,-15.428 11.373,-23.208 8.151,-17.105 16.11,-34.302 24.329,-51.373 3.698,-7.688 7.435,-15.355 11.18,-23.019 l 66.81,6.936 c -3.964,7.98 -7.904,15.97 -11.528,24.099 -7.443,16.712 -16.12,32.823 -23.699,49.458 C 72.029,-2.979 64.964,10.859 58.359,24.908 53.624,34.983 48.564,44.869 41.579,53.567 30.105,67.854 17.088,80.327 1.135,89.602 L -0.907,1.548 C -0.575,1.074 -0.272,0.555 0,0"
             style="fill:#ff7400;fill-opacity:1;fill-rule:nonzero;stroke:none"
             id="path5962" />
        </g>
        <g
           id="g5964"
           transform="translate(474.5405,384.1211)">
          <path
             d="M 0,0 0.383,7.316 C 0.391,7.461 0.384,7.602 0.384,7.744 L -0.39,8.289 Z"
             style="fill:#df8100;fill-opacity:1;fill-rule:nonzero;stroke:none"
             id="path5966" />
        </g>
        <g
           id="g5968"
           transform="translate(481.001,761.0415)">
          <path
             d="m 0,0 c 0.824,23.695 1.754,47.391 2.554,71.099 0.292,8.82 0.348,17.664 0.504,26.497 0.067,4.042 2.408,6.427 6.023,7.243 2.676,0.607 4.66,-0.564 6.079,-2.582 l 2.042,88.054 c -0.922,0.536 -1.85,1.066 -2.792,1.581 -3.114,1.701 -6.267,3.289 -9.455,4.768 L -113.649,18.752 Z"
             style="fill:#ff6200;fill-opacity:1;fill-rule:nonzero;stroke:none"
             id="path5970" />
        </g>
        <g
           id="g5972"
           transform="translate(432.6318,1013.981)">
          <path
             d="m 0,0 c 26.853,2.903 50.775,18.49 65.179,40.599 l -1.193,93.96 c -3.413,4.507 -7.324,8.611 -11.663,12.238 L -40.002,22.383 Z"
             style="fill:#fa3600;fill-opacity:1;fill-rule:nonzero;stroke:none"
             id="path5974" />
        </g>
        <g
           id="g5976"
           transform="translate(540.4814,617.7856)">
          <path
             d="m 0,0 c -2.876,4.019 -5.824,7.985 -8.854,11.893 -13.524,17.43 -28.336,33.91 -44.467,49.033 -6.437,6.034 -8.945,12.931 -8.508,21.54 0.313,6.336 0.626,12.673 0.962,19.02 0.517,9.746 0.752,19.508 1.014,29.267 L -193.352,24.876 Z"
             style="fill:#ff7200;fill-opacity:1;fill-rule:nonzero;stroke:none"
             id="path5978" />
        </g>
        <g
           id="g5980"
           transform="translate(458.8804,422.4941)">
          <path
             d="m 0,0 c 9.136,0.059 18.274,0.09 27.411,0.225 l 69.126,172.57 c -4.717,7.677 -9.699,15.178 -14.936,22.496 l -193.352,24.877 z"
             style="fill:#ff7400;fill-opacity:1;fill-rule:nonzero;stroke:none"
             id="path5982" />
        </g>
        <g
           id="g5984"
           transform="translate(474.6963,393.7715)">
          <path
             d="m 0,0 c -0.524,2.068 -1.879,3.816 -3.704,4.861 l 3.158,-6.222 z"
             style="fill:#ff7400;fill-opacity:1;fill-rule:nonzero;stroke:none"
             id="path5986" />
        </g>
        <g
           id="g5988"
           transform="translate(348.6895,147.3086)">
          <path
             d="M 0,0 C 13.348,-0.699 25.146,7.26 29.948,18.963 L -18.629,7.604 C -13.63,3.197 -7.171,0.375 0,0"
             style="fill:#c84600;fill-opacity:1;fill-rule:nonzero;stroke:none"
             id="path5990" />
        </g>
        <g
           id="g5992"
           transform="translate(460.3926,114.1387)">
          <path
             d="M 0,0 3.78,72.131 -58.317,57.613 -61.168,3.201 c -0.057,-1.086 -0.055,-2.16 0,-3.222 l 51.982,-20.29 C -3.874,-15.121 -0.419,-8 0,0"
             style="fill:#c84600;fill-opacity:1;fill-rule:nonzero;stroke:none"
             id="path5994" />
        </g>
        <g
           id="g5996"
           transform="translate(428.2075,85.1426)">
          <path
             d="M 0,0 C 8.893,-0.465 17.094,2.916 23,8.686 L -28.983,28.975 C -28.182,13.508 -15.808,0.84 0,0"
             style="fill:#ba2800;fill-opacity:1;fill-rule:nonzero;stroke:none"
             id="path5998" />
        </g>
        <g
           id="g6000"
           transform="translate(391,369.3594)">
          <path
             d="m 0,0 1.037,19.795 c 0.234,4.31 -3.079,7.992 -7.4,8.217 l -38.046,1.992 -0.093,-42.342 z"
             style="fill:#fc6200;fill-opacity:1;fill-rule:nonzero;stroke:none"
             id="path6002" />
        </g>
        <g
           id="g6004"
           transform="translate(346.6377,420.4531)">
          <path
             d="m 0,0 c 0.609,0.027 1.219,0.051 1.829,0.08 24.729,1.221 49.548,0.291 74.322,1.275 12.025,0.483 24.056,0.61 36.092,0.686 L 0.492,222.209 Z"
             style="fill:#fc6200;fill-opacity:1;fill-rule:nonzero;stroke:none"
             id="path6006" />
        </g>
        <g
           id="g6008"
           transform="translate(470.9922,398.6328)">
          <path
             d="m 0,0 c -1.028,0.588 -2.202,0.957 -3.468,1.021 l -45.553,2.385 c -4.31,0.225 -7.993,-3.09 -8.216,-7.398 l -1.009,-19.254 61.404,17.023 z"
             style="fill:#fc6200;fill-opacity:1;fill-rule:nonzero;stroke:none"
             id="path6010" />
        </g>
        <g
           id="g6012"
           transform="translate(387.7354,307.041)">
          <path
             d="M 0,0 3.265,62.318 -41.238,49.981 Z"
             style="fill:#e56700;fill-opacity:1;fill-rule:nonzero;stroke:none"
             id="path6014" />
        </g>
        <g
           id="g6016"
           transform="translate(474.5405,384.1211)">
          <path
             d="M 0,0 -0.39,8.289 -61.794,-8.734 -66.655,-101.5 -8.982,-171.4 Z"
             style="fill:#e56700;fill-opacity:1;fill-rule:nonzero;stroke:none"
             id="path6018" />
        </g>
        <g
           id="g6020"
           transform="translate(347.1294,642.6616)">
          <path
             d="m 0,0 133.499,105.877 c 0.106,3.985 0.216,7.97 0.353,11.953 0.006,0.184 0.013,0.366 0.02,0.55 l -113.65,18.752 z"
             style="fill:#ff6800;fill-opacity:1;fill-rule:nonzero;stroke:none"
             id="path6022" />
        </g>
        <g
           id="g6024"
           transform="translate(484.9546,1160.7778)">
          <path
             d="m 0,0 c -13.275,11.097 -30.558,17.723 -49.85,17.723 -31.988,0 -61.001,-18.208 -76.55,-44.824 l 34.075,-97.313 z"
             style="fill:#ee2300;fill-opacity:1;fill-rule:nonzero;stroke:none"
             id="path6026" />
        </g>
        <g
           id="g6028"
           transform="translate(391.0518,1020.354)">
          <path
             d="m 0,0 c 9.795,-4.413 20.779,-6.867 32.51,-6.867 3.054,0 6.08,0.171 9.07,0.494 L 1.578,16.01 Z"
             style="fill:#ff4d00;fill-opacity:1;fill-rule:nonzero;stroke:none"
             id="path6030" />
        </g>
        <g
           id="g6032"
           transform="translate(485.9561,957.7017)">
          <path
             d="m 0,0 c -11.468,5.32 -23.418,9.143 -35.919,11.027 -13.367,2.027 -26.923,2.474 -40.537,0.65 -8.172,-1.101 -16.166,-2.781 -23.97,-5.069 l -18.178,-184.516 z"
             style="fill:#ff4d00;fill-opacity:1;fill-rule:nonzero;stroke:none"
             id="path6034" />
        </g>
        <g
           id="g6036"
           transform="translate(322.1499,226.1035)">
          <path
             d="M 0,0 -2.444,-46.598 C -2.953,-56.32 1.134,-65.217 7.91,-71.191 l 48.578,11.359 c 1.275,3.107 2.063,6.477 2.249,10.021 l 6.848,130.748 -41.237,49.981 z"
             style="fill:#d45200;fill-opacity:1;fill-rule:nonzero;stroke:none"
             id="path6038" />
        </g>
        <g
           id="g6040"
           transform="translate(465.5586,212.7207)">
          <path
             d="m 0,0 -57.673,69.9 -5.81,-110.869 62.097,14.518 z"
             style="fill:#d45200;fill-opacity:1;fill-rule:nonzero;stroke:none"
             id="path6042" />
        </g>
        <g
           id="g6044"
           transform="translate(328.4722,346.6758)">
          <path
             d="M 0,0 -6.322,-120.572 18.025,10.346 Z"
             style="fill:#d24000;fill-opacity:1;fill-rule:nonzero;stroke:none"
             id="path6046" />
        </g>
        <g
           id="g6048"
           transform="translate(330.2549,380.6719)">
          <path
             d="M 0,0 -1.143,-21.799 16.243,-23.65 Z"
             style="fill:#ec4600;fill-opacity:1;fill-rule:nonzero;stroke:none"
             id="path6050" />
        </g>
        <g
           id="g6052"
           transform="translate(219.0522,498.6738)">
          <path
             d="m 0,0 c -9.919,-24.707 -17.163,-50.174 -22.659,-76.18 -0.627,-2.978 0.414,-4.58 3.683,-4.31 2.172,0.168 4.355,0.336 6.538,0.312 23.072,-0.234 46.146,-0.156 69.219,0.783 9.181,0.375 18.365,0.475 27.552,0.518 L 11.705,26.881 C 7.549,18.053 3.648,9.092 0,0"
             style="fill:#ec4600;fill-opacity:1;fill-rule:nonzero;stroke:none"
             id="path6054" />
        </g>
        <g
           id="g6056"
           transform="translate(304.0898,637.0933)">
          <path
             d="m 0,0 c -0.168,-0.512 -0.483,-1.022 -0.941,-1.538 -9.661,-10.96 -18.741,-22.334 -27.137,-34.335 -5.9,-8.441 -12.169,-16.658 -17.677,-25.357 -10.283,-16.205 -19.43,-32.998 -27.577,-50.309 l 72.628,-105.757 c 14.411,0.07 28.83,0.011 43.252,0.656 L 43.04,5.568 Z"
             style="fill:#fc5000;fill-opacity:1;fill-rule:nonzero;stroke:none"
             id="path6058" />
        </g>
        <g
           id="g6060"
           transform="translate(346.5913,399.3633)">
          <path
             d="m 0,0 -7.507,0.393 c -4.309,0.234 -7.993,-3.079 -8.217,-7.401 l -0.612,-11.683 16.242,-23.651 z"
             style="fill:#fc5000;fill-opacity:1;fill-rule:nonzero;stroke:none"
             id="path6062" />
        </g>
        <g
           id="g6064"
           transform="translate(367.3516,779.7935)">
          <path
             d="M 0,0 -12.8,7.75 C -12.88,4.065 -12.942,0.381 -13.013,-3.302 Z"
             style="fill:#f34c00;fill-opacity:1;fill-rule:nonzero;stroke:none"
             id="path6066" />
        </g>
        <g
           id="g6068"
           transform="translate(338.2041,797.4399)">
          <path
             d="m 0,0 -62.585,37.892 c -0.217,-1.599 -0.418,-3.203 -0.592,-4.817 -1.097,-10.141 -1.109,-20.284 -1.321,-30.416 -0.31,-14.865 -1.423,-29.722 -2.052,-44.587 l 65.736,16.679 C -0.496,-16.835 -0.236,-8.418 0,0"
             style="fill:#f34c00;fill-opacity:1;fill-rule:nonzero;stroke:none"
             id="path6070" />
        </g>
        <g
           id="g6072"
           transform="translate(358.5542,1133.6772)">
          <path
             d="m 0,0 c -6.6,-11.297 -10.776,-24.107 -11.723,-37.685 -0.874,-12.478 1.074,-24.307 5.292,-34.911 l 40.506,-24.717 z"
             style="fill:#e51300;fill-opacity:1;fill-rule:nonzero;stroke:none"
             id="path6074" />
        </g>
        <g
           id="g6076"
           transform="translate(352.123,1061.0815)">
          <path
             d="m 0,0 c 4.707,-11.834 12.244,-22.14 21.866,-30.104 l 18.64,5.386 z"
             style="fill:#e71c00;fill-opacity:1;fill-rule:nonzero;stroke:none"
             id="path6078" />
        </g>
        <g
           id="g6080"
           transform="translate(392.6294,1036.3638)">
          <path
             d="m 0,0 -18.64,-5.387 c 5.133,-4.249 10.86,-7.828 17.062,-10.623 z"
             style="fill:#f74100;fill-opacity:1;fill-rule:nonzero;stroke:none"
             id="path6082" />
        </g>
        <g
           id="g6084"
           transform="translate(338.2041,797.4399)">
          <path
             d="m 0,0 c 0.417,14.851 0.774,29.704 1.306,44.551 0.191,5.34 0.078,10.826 2.328,15.92 1.847,4.186 5.318,5.508 9.304,4.332 4.007,-1.187 6.313,-4.345 6.66,-7.557 C 18.758,40.711 18.143,25.25 17.124,9.814 16.692,3.251 16.49,-3.322 16.347,-9.896 l 12.8,-7.75 18.179,184.516 C 40.367,164.829 33.559,162.306 26.919,159.255 5.57,149.425 -12.531,135.141 -27.622,117.139 -37.776,105.016 -45.893,91.614 -52.049,76.983 -57.363,64.382 -60.75,51.378 -62.585,37.892 Z"
             style="fill:#f74100;fill-opacity:1;fill-rule:nonzero;stroke:none"
             id="path6086" />
        </g>
        <g
           id="g6088"
           transform="translate(367.3516,779.7935)">
          <path
             d="m 0,0 -13.013,-3.302 c -0.153,-7.942 -0.355,-15.875 -0.902,-23.781 -1.388,-19.882 0.917,-39.832 -2.116,-59.612 -0.773,-5.049 -3.426,-9.013 -6.527,-12.73 -2.306,-2.765 -4.992,-5.205 -7.546,-7.768 -0.896,-0.897 -1.914,-1.68 -3.268,-1.042 -1.22,0.582 -1.4,1.814 -1.276,2.957 3.336,30.124 3.123,60.428 4.411,90.656 0.099,2.34 0.187,4.68 0.276,7.019 l -65.737,-16.678 c -0.622,-14.698 -0.771,-29.406 0.799,-44.133 0.905,-8.519 2.646,-16.871 5.304,-24.919 l 69.373,-43.799 z"
             style="fill:#ff5e00;fill-opacity:1;fill-rule:nonzero;stroke:none"
             id="path6090" />
        </g>
        <g
           id="g6092"
           transform="translate(277.7568,686.4604)">
          <path
             d="m 0,0 c 0.629,-1.905 1.293,-3.798 2.028,-5.666 5.742,-14.588 13.02,-28.458 23.375,-40.448 0.994,-1.144 1.276,-2.202 0.93,-3.253 l 43.04,5.568 z"
             style="fill:#fb5700;fill-opacity:1;fill-rule:nonzero;stroke:none"
             id="path6094" />
        </g>
        <g
           id="g6096"
           transform="translate(346.4976,357.0215)">
          <path
             d="m 0,0 -17.386,1.851 -0.639,-12.197 z"
             style="fill:#d94500;fill-opacity:1;fill-rule:nonzero;stroke:none"
             id="path6098" />
        </g>
      </g>
    </g>
  </g>
</svg>
